<?xml version="1.0" encoding="UTF-8"?>
<svg id="katman_2" data-name="katman 2" xmlns="http://www.w3.org/2000/svg" viewBox="0 0 23.73 24">
  <defs>
    <style>
      .cls-1 {
        fill: #6a0000;
        stroke-width: 0px;
      }
    </style>
  </defs>
  <g id="Layer_1" data-name="Layer 1">
    <g>
      <path class="cls-1" d="m22.73,24c-.26,0-.51-.1-.71-.29l-7.03-7.03c-.39-.39-.39-1.02,0-1.41.39-.39,1.02-.39,1.41,0l7.03,7.03c.39.39.39,1.02,0,1.41-.2.2-.45.29-.71.29Z"/>
      <path class="cls-1" d="m9.49,18.98C4.26,18.98,0,14.72,0,9.49S4.26,0,9.49,0s9.49,4.26,9.49,9.49-4.26,9.49-9.49,9.49Zm0-16.98C5.36,2,2,5.36,2,9.49s3.36,7.49,7.49,7.49,7.49-3.36,7.49-7.49S13.62,2,9.49,2Z"/>
    </g>
  </g>
</svg>