<?xml version="1.0" encoding="UTF-8"?>
<svg id="katman_2" data-name="katman 2" xmlns="http://www.w3.org/2000/svg" xmlns:xlink="http://www.w3.org/1999/xlink" viewBox="0 0 140 79.28">
  <defs>
    <style>
      .cls-1 {
        fill: url(#Adsız_degrade_3);
      }

      .cls-1, .cls-2, .cls-3, .cls-4, .cls-5, .cls-6, .cls-7, .cls-8, .cls-9, .cls-10 {
        stroke-width: 0px;
      }

      .cls-2 {
        fill: url(#Adsız_degrade_3-2);
      }

      .cls-3 {
        fill: url(#Adsız_degrade_3-3);
      }

      .cls-4 {
        fill: url(#Adsız_degrade_3-6);
      }

      .cls-5 {
        fill: url(#Adsız_degrade_3-9);
      }

      .cls-6 {
        fill: url(#Adsız_degrade_3-5);
      }

      .cls-7 {
        fill: url(#Adsız_degrade_3-8);
      }

      .cls-8 {
        fill: url(#Adsız_degrade_3-7);
      }

      .cls-9 {
        fill: url(#Adsız_degrade_3-4);
      }

      .cls-10 {
        fill: #6a0000;
      }
    </style>
    <linearGradient id="Adsız_degrade_3" data-name="Adsız degrade 3" x1="4407.68" y1="-2122.63" x2="4416.31" y2="-2122.63" gradientTransform="translate(-3029.54 3859.4) rotate(-25.94)" gradientUnits="userSpaceOnUse">
      <stop offset="0" stop-color="#b76318"/>
      <stop offset="1" stop-color="#c0802d"/>
    </linearGradient>
    <linearGradient id="Adsız_degrade_3-2" data-name="Adsız degrade 3" x1="10566.63" y1="-1975.78" x2="10575.26" y2="-1975.78" gradientTransform="translate(-3190.95 10304.95) rotate(-62.11)" xlink:href="#Adsız_degrade_3"/>
    <linearGradient id="Adsız_degrade_3-3" data-name="Adsız degrade 3" x1="-365.78" y1="1077.07" x2="-357.15" y2="1077.07" gradientTransform="translate(525.49 -1008.84) rotate(7.79)" xlink:href="#Adsız_degrade_3"/>
    <linearGradient id="Adsız_degrade_3-4" data-name="Adsız degrade 3" x1="-2558.18" y1="6482.53" x2="-2549.55" y2="6482.53" gradientTransform="translate(6273.17 -3101.94) rotate(42)" xlink:href="#Adsız_degrade_3"/>
    <linearGradient id="Adsız_degrade_3-5" data-name="Adsız degrade 3" x1="1622.61" y1="-765.69" x2="1627.91" y2="-765.69" gradientTransform="translate(-1487.8 998.4) rotate(-7.93)" xlink:href="#Adsız_degrade_3"/>
    <linearGradient id="Adsız_degrade_3-6" data-name="Adsız degrade 3" x1="7791.54" y1="-2525.09" x2="7796.84" y2="-2525.09" gradientTransform="translate(-3629.89 7370.26) rotate(-45.68)" xlink:href="#Adsız_degrade_3"/>
    <linearGradient id="Adsız_degrade_3-7" data-name="Adsız degrade 3" x1="13632.86" y1="-228.24" x2="13638.17" y2="-228.24" gradientTransform="translate(-1535.34 13594.6) rotate(-82.54)" xlink:href="#Adsız_degrade_3"/>
    <linearGradient id="Adsız_degrade_3-8" data-name="Adsız degrade 3" x1="-2075.37" y1="4173.69" x2="-2070.07" y2="4173.69" gradientTransform="translate(3834.64 -2681.15) rotate(28.33)" xlink:href="#Adsız_degrade_3"/>
    <linearGradient id="Adsız_degrade_3-9" data-name="Adsız degrade 3" x1="-2260.85" y1="9890.33" x2="-2255.55" y2="9890.33" gradientTransform="translate(9829.88 -2669.63) rotate(61.82)" xlink:href="#Adsız_degrade_3"/>
  </defs>
  <g id="Layer_1" data-name="Layer 1">
    <g>
      <g>
        <path class="cls-10" d="m38.84,16.79c2.51.28,4.87,1.01,7.08,2.18,2.21,1.17,4.11,2.67,5.7,4.48,1.59,1.82,2.85,3.88,3.77,6.2.92,2.32,1.38,4.76,1.38,7.33v16.17c0,1.12.13,2.35,0,3.54-.13,1.16-1.39.72-2.45.72-.39,0-2.4.02-2.87-.04-.48-.05-2.33.17-2.77-.08-.45-.25-.58-.99-.5-1.56.1-.69.02-1.13-.03-1.91-.28.11-.78.36-1.51.75-.73.39-1.26.67-1.59.84-.62.28-1.26.53-1.93.75-.67.22-1.37.45-2.09.67-1.4.28-2.91.42-4.52.42-4.19,0-7.93-1.13-11.23-3.39-3.3-2.26-5.75-5.18-7.37-8.76-.56-1.23-.99-2.53-1.3-3.9-.31-1.37-.46-2.78-.46-4.23s.15-2.85.46-4.19c.31-1.34.74-2.65,1.3-3.94,1.62-3.63,4.08-6.56,7.37-8.8,3.29-2.23,7.04-3.35,11.23-3.35h1.17c.33,0,.73.03,1.17.08Zm-2.43,32.26c1.62,0,3.17-.31,4.65-.92,1.48-.61,2.76-1.47,3.85-2.56,1.09-1.09,1.95-2.36,2.6-3.81.64-1.45.96-3.04.96-4.78,0-1.56-.32-3.09-.96-4.57-.64-1.48-1.52-2.76-2.64-3.85-1.12-1.09-2.4-1.97-3.85-2.64-1.45-.67-2.99-1.01-4.61-1.01s-3.14.32-4.57.96c-1.42.64-2.69,1.52-3.81,2.64-1.12,1.12-2,2.4-2.64,3.85-.64,1.45-.96,2.99-.96,4.61s.33,3.24,1.01,4.69c.67,1.45,1.58,2.72,2.72,3.81,1.14,1.09,2.43,1.96,3.85,2.6,1.42.64,2.89.96,4.4.96Z"/>
        <path class="cls-10" d="m122.01,16.79c2.51.28,4.87,1.01,7.08,2.18,2.21,1.17,4.11,2.67,5.7,4.48,1.59,1.82,2.85,3.88,3.77,6.2.92,2.32,1.38,4.76,1.38,7.33v16.17c0,1.12.13,2.35,0,3.54-.13,1.16-1.39.72-2.45.72-.39,0-2.4.02-2.87-.04-.48-.05-2.33.17-2.77-.08-.45-.25-.58-.99-.5-1.56.1-.69.02-1.13-.03-1.91-.28.11-.78.36-1.51.75-.73.39-1.26.67-1.59.84-.62.28-1.26.53-1.93.75-.67.22-1.37.45-2.09.67-1.4.28-2.91.42-4.52.42-4.19,0-7.93-1.13-11.23-3.39-3.3-2.26-5.75-5.18-7.37-8.76-.56-1.23-.99-2.53-1.3-3.9-.31-1.37-.46-2.78-.46-4.23s.15-2.85.46-4.19c.31-1.34.74-2.65,1.3-3.94,1.62-3.63,4.08-6.56,7.37-8.8,3.29-2.23,7.04-3.35,11.23-3.35h1.17c.33,0,.73.03,1.17.08Zm-2.43,32.26c1.62,0,3.17-.31,4.65-.92,1.48-.61,2.76-1.47,3.85-2.56,1.09-1.09,1.95-2.36,2.6-3.81.64-1.45.96-3.04.96-4.78,0-1.56-.32-3.09-.96-4.57-.64-1.48-1.52-2.76-2.64-3.85-1.12-1.09-2.4-1.97-3.85-2.64-1.45-.67-2.99-1.01-4.61-1.01s-3.14.32-4.57.96c-1.42.64-2.69,1.52-3.81,2.64-1.12,1.12-2,2.4-2.64,3.85-.64,1.45-.96,2.99-.96,4.61s.33,3.24,1.01,4.69c.67,1.45,1.58,2.72,2.72,3.81,1.14,1.09,2.43,1.96,3.85,2.6,1.42.64,2.89.96,4.4.96Z"/>
        <g>
          <path class="cls-1" d="m15.49,24.27c-.53-.1-1.11-.11-1.6-.32-3.5-1.51-4.51-1.86-8.72-3.94-.24-.12-.98-.48-1.35-1.25-.09-.2-.32-.67-.12-1.16.2-.49.71-.66.78-.68.77-.25,1.59.35,1.95.57,2.78,1.71,5.55,3.45,8.3,5.2.39.25.69.66,1.03.99.14.09.19.26.13.41-.07.15-.24.23-.39.18Z"/>
          <path class="cls-2" d="m13.48,36.67c-.49.23-.96.57-1.48.69-3.72.84-4.74,1.15-9.37,1.97-.27.05-1.07.19-1.82-.21-.19-.1-.66-.35-.78-.86-.13-.51.18-.96.23-1.01.48-.66,1.49-.66,1.91-.69,3.25-.26,6.51-.49,9.77-.7.47-.03.94.12,1.41.19.16-.01.31.1.34.26.03.16-.06.32-.21.38Z"/>
          <path class="cls-3" d="m24.33,15.43c-.39-.38-.86-.7-1.15-1.15-2.07-3.2-2.71-4.05-5.07-8.12-.13-.23-.55-.94-.43-1.79.03-.22.11-.74.54-1.03.44-.29.96-.15,1.03-.14.78.22,1.13,1.17,1.3,1.55,1.36,2.97,2.7,5.95,4.02,8.94.19.43.21.93.3,1.39.07.15.01.32-.12.41-.14.09-.32.06-.43-.07Z"/>
          <path class="cls-9" d="m36.64,13.43c-.11-.53-.32-1.07-.31-1.6.09-3.81.04-4.88.38-9.57.02-.27.08-1.09.65-1.72C37.52.38,37.87,0,38.39,0c.53,0,.88.41.93.47.52.62.27,1.6.2,2.02-.54,3.22-1.11,6.44-1.7,9.65-.08.46-.35.88-.53,1.32-.03.16-.17.28-.33.27-.16,0-.3-.13-.31-.3Z"/>
          <path class="cls-6" d="m19.03,18.9c-.29-.16-.63-.27-.87-.49-1.76-1.55-2.28-1.95-4.35-3.96-.12-.12-.48-.47-.55-.99-.02-.13-.06-.46.15-.7.21-.25.54-.25.59-.25.5,0,.86.5,1.03.7,1.3,1.53,2.59,3.07,3.86,4.62.18.22.28.51.41.77.06.08.06.19,0,.26-.07.07-.18.09-.26.03Z"/>
          <path class="cls-4" d="m12.82,30.32c-.33.05-.66.17-.99.15-2.34-.15-2.99-.14-5.86-.47-.16-.02-.67-.07-1.04-.44-.1-.1-.33-.32-.31-.64.02-.33.27-.53.31-.56.4-.3.99-.13,1.24-.07,1.96.41,3.92.84,5.88,1.28.28.06.53.24.8.36.1.02.17.11.16.21,0,.1-.09.18-.19.19Z"/>
          <path class="cls-8" d="m13.46,43.13c-.23.24-.43.53-.7.71-1.96,1.28-2.48,1.68-4.97,3.14-.14.08-.58.34-1.1.27-.13-.02-.45-.06-.63-.33-.18-.27-.1-.59-.09-.63.13-.48.71-.7.95-.81,1.82-.85,3.64-1.68,5.47-2.5.26-.12.57-.13.86-.19.09-.04.2-.01.25.07.05.08.04.2-.04.26Z"/>
          <path class="cls-7" d="m30.03,13.34c-.14-.3-.35-.59-.42-.91-.5-2.29-.69-2.92-1.16-5.77-.03-.16-.11-.66.14-1.12.07-.12.22-.4.53-.48.32-.07.59.12.62.14.4.3.4.92.41,1.17.15,2,.27,4,.38,6.01.02.29-.08.58-.13.87,0,.1-.06.19-.16.21-.1.02-.2-.04-.23-.13Z"/>
          <path class="cls-5" d="m43.56,14.5c.05-.33.04-.68.16-.99.84-2.18,1.04-2.81,2.21-5.45.07-.15.27-.61.73-.86.12-.06.41-.21.71-.1.31.11.42.42.44.46.17.47-.18.98-.3,1.21-.98,1.75-1.98,3.49-2.99,5.22-.14.25-.39.44-.58.65-.05.09-.16.12-.25.09-.09-.04-.15-.14-.12-.24Z"/>
        </g>
        <path class="cls-10" d="m97.69,2.3c-.03-1.05-.34-1.29-1.46-1.3-.07,0-.14-.01-.21-.01h-5.35s-.02,0-.03,0c-.1,0-.2,0-.29,0-1.4,0-1.5.11-1.5,1.51,0,5.28.01,10.56.01,15.85,0,.93-.41,1.23-1.13.81-2.83-1.65-5.88-2.39-9.14-2.49-2.81-.09-5.53.4-8.08,1.49-2.41,1.03-4.59,2.49-6.46,4.42-3.67,3.81-5.76,8.34-5.89,13.57-.16,6.41,2.34,11.78,7.2,16.01,3.66,3.18,7.97,4.7,12.78,4.74,2.61.02,5.15-.48,7.6-1.53.39-.17,1.62-.71,3.21-1.78v2.21c0,.94.77,1.71,1.71,1.71h5.35c.94,0,1.71-.77,1.71-1.71V2.7c0-.14-.02-.27-.05-.4Zm-19.22,45.88c-6.18,0-11.2-5.01-11.2-11.2,0-.07,0-.13.01-.2-.03-1.08.16-2.12.49-3.12.35-1.14.89-2.2,1.57-3.15.15-.22.32-.44.49-.65h0c.44-.54.93-1.04,1.47-1.47,1.94-1.62,4.44-2.6,7.17-2.6,4.8,0,8.88,3.02,10.47,7.26,0,.01.02.02.03.03v.04c.44,1.21.7,2.5.7,3.87,0,6.18-5.01,11.2-11.2,11.2Z"/>
      </g>
      <g>
        <path class="cls-10" d="m82.72,64.43v9.61c0,1.79-.43,3.11-1.3,3.96-.87.85-2.17,1.28-3.92,1.28-.99,0-1.93-.15-2.8-.45-.88-.3-1.59-.72-2.13-1.26l.56-.78c.54.5,1.18.88,1.94,1.16.76.27,1.56.41,2.41.41,1.43,0,2.49-.34,3.18-1.02.69-.68,1.03-1.74,1.03-3.17v-1.82c-.44.78-1.05,1.39-1.84,1.82-.78.43-1.66.64-2.64.64s-1.91-.22-2.73-.67c-.82-.45-1.46-1.07-1.93-1.87-.47-.8-.7-1.7-.7-2.7s.23-1.9.7-2.7c.47-.8,1.11-1.42,1.93-1.86.82-.44,1.73-.66,2.73-.66s1.88.22,2.68.66c.8.44,1.41,1.06,1.84,1.86v-2.43h.99Zm-3.16,8.9c.67-.36,1.2-.87,1.58-1.53.38-.65.57-1.4.57-2.24s-.19-1.58-.57-2.23c-.38-.65-.9-1.15-1.58-1.52s-1.43-.55-2.27-.55-1.59.18-2.26.55-1.19.87-1.57,1.52c-.38.65-.57,1.39-.57,2.23s.19,1.59.57,2.24c.38.65.9,1.16,1.57,1.53.67.36,1.42.55,2.26.55s1.6-.18,2.27-.55Z"/>
        <path class="cls-10" d="m96.52,64.43v10.77h-.99v-2.31c-.36.76-.89,1.34-1.59,1.76s-1.53.63-2.48.63c-1.4,0-2.5-.39-3.3-1.18-.8-.78-1.2-1.91-1.2-3.38v-6.29h1.03v6.21c0,1.21.31,2.13.93,2.76.62.63,1.49.95,2.62.95,1.21,0,2.17-.38,2.88-1.13.71-.76,1.06-1.77,1.06-3.05v-5.73h1.03Z"/>
        <path class="cls-10" d="m103.43,64.98c.7-.42,1.55-.63,2.56-.63v1.01l-.25-.02c-1.2,0-2.13.37-2.81,1.12-.67.75-1.01,1.79-1.01,3.13v5.61h-1.03v-10.77h.99v2.35c.33-.78.85-1.39,1.55-1.8Z"/>
        <path class="cls-10" d="m125.39,65.52c.76.78,1.14,1.91,1.14,3.38v6.29h-1.03v-6.21c0-1.21-.29-2.13-.89-2.76-.59-.63-1.42-.95-2.48-.95-1.21,0-2.17.38-2.88,1.13-.71.76-1.06,1.77-1.06,3.05v5.73h-1.03v-6.21c0-1.21-.29-2.13-.89-2.76-.59-.63-1.42-.95-2.48-.95-1.21,0-2.17.38-2.88,1.13s-1.06,1.77-1.06,3.05v5.73h-1.03v-10.77h.99v2.31c.36-.76.89-1.34,1.6-1.76s1.55-.63,2.53-.63,1.81.22,2.49.66c.68.44,1.16,1.09,1.45,1.94.36-.8.92-1.43,1.68-1.9.76-.47,1.65-.7,2.67-.7,1.33,0,2.38.39,3.15,1.18Z"/>
        <path class="cls-10" d="m139.9,70.06h-9.26c.03.84.24,1.59.64,2.24.4.65.94,1.16,1.62,1.52.68.36,1.45.54,2.3.54.7,0,1.35-.13,1.95-.38.6-.25,1.1-.63,1.5-1.12l.6.68c-.47.56-1.05,1-1.76,1.3-.71.3-1.47.45-2.3.45-1.07,0-2.03-.23-2.87-.7-.84-.47-1.5-1.11-1.97-1.94-.47-.83-.71-1.77-.71-2.83s.22-1.98.67-2.82c.45-.83,1.06-1.48,1.85-1.95.78-.47,1.66-.7,2.64-.7s1.85.23,2.63.69c.78.46,1.39,1.1,1.84,1.93.45.83.67,1.76.67,2.81l-.02.29Zm-7.16-4.3c-.61.34-1.09.81-1.45,1.42s-.57,1.3-.63,2.07h8.25c-.04-.77-.25-1.46-.62-2.06-.37-.6-.86-1.08-1.47-1.42-.61-.34-1.29-.52-2.04-.52s-1.44.17-2.04.51Z"/>
      </g>
    </g>
  </g>
</svg>