<?xml version="1.0" encoding="UTF-8"?>
<svg id="katman_2" data-name="katman 2" xmlns="http://www.w3.org/2000/svg" xmlns:xlink="http://www.w3.org/1999/xlink" viewBox="0 0 240 98.56">
  <defs>
    <style>
      .cls-1 {
        fill: url(#Adsız_degrade_3);
      }

      .cls-1, .cls-2, .cls-3, .cls-4, .cls-5, .cls-6, .cls-7, .cls-8, .cls-9, .cls-10 {
        stroke-width: 0px;
      }

      .cls-2 {
        fill: url(#Adsız_degrade_3-2);
      }

      .cls-3 {
        fill: url(#Adsız_degrade_3-3);
      }

      .cls-4 {
        fill: url(#Adsız_degrade_3-6);
      }

      .cls-5 {
        fill: url(#Adsız_degrade_3-9);
      }

      .cls-6 {
        fill: url(#Adsız_degrade_3-5);
      }

      .cls-7 {
        fill: url(#Adsız_degrade_3-8);
      }

      .cls-8 {
        fill: url(#Adsız_degrade_3-7);
      }

      .cls-9 {
        fill: url(#Adsız_degrade_3-4);
      }

      .cls-10 {
        fill: #fff;
      }
    </style>
    <linearGradient id="Adsız_degrade_3" data-name="Adsız degrade 3" x1="1172.8" y1="-2771.32" x2="1187.6" y2="-2771.32" gradientTransform="translate(167.32 3044.06) rotate(-25.94)" gradientUnits="userSpaceOnUse">
      <stop offset="0" stop-color="#b76318"/>
      <stop offset="1" stop-color="#c0802d"/>
    </linearGradient>
    <linearGradient id="Adsız_degrade_3-2" data-name="Adsız degrade 3" x1="3955.52" y1="-5718.85" x2="3970.32" y2="-5718.85" gradientTransform="translate(3212.86 6241.5) rotate(-62.11)" xlink:href="#Adsız_degrade_3"/>
    <linearGradient id="Adsız_degrade_3-3" data-name="Adsız degrade 3" x1="641.65" y1="990.48" x2="656.45" y2="990.48" gradientTransform="translate(-472.17 -1053.37) rotate(7.79)" xlink:href="#Adsız_degrade_3"/>
    <linearGradient id="Adsız_degrade_3-4" data-name="Adsız degrade 3" x1="2334.87" y1="4465.67" x2="2349.66" y2="4465.67" gradientTransform="translate(1311.97 -4874.46) rotate(42)" xlink:href="#Adsız_degrade_3"/>
    <linearGradient id="Adsız_degrade_3-5" data-name="Adsız degrade 3" x1="614.98" y1="-799.53" x2="624.07" y2="-799.53" gradientTransform="translate(-475.4 904.39) rotate(-7.93)" xlink:href="#Adsız_degrade_3"/>
    <linearGradient id="Adsız_degrade_3-6" data-name="Adsız degrade 3" x1="2469.4" y1="-4597.59" x2="2478.49" y2="-4597.59" gradientTransform="translate(1576.06 5032.73) rotate(-45.68)" xlink:href="#Adsız_degrade_3"/>
    <linearGradient id="Adsız_degrade_3-7" data-name="Adsız degrade 3" x1="6164.32" y1="-6440.74" x2="6173.41" y2="-6440.74" gradientTransform="translate(5601.42 7030.39) rotate(-82.54)" xlink:href="#Adsız_degrade_3"/>
    <linearGradient id="Adsız_degrade_3-8" data-name="Adsız degrade 3" x1="1410.91" y1="3207.88" x2="1419.99" y2="3207.88" gradientTransform="translate(327.07 -3479.64) rotate(28.33)" xlink:href="#Adsız_degrade_3"/>
    <linearGradient id="Adsız_degrade_3-9" data-name="Adsız degrade 3" x1="4146.12" y1="5835.88" x2="4155.21" y2="5835.88" gradientTransform="translate(3261.87 -6396.21) rotate(61.82)" xlink:href="#Adsız_degrade_3"/>
  </defs>
  <g id="Layer_1" data-name="Layer 1">
    <g>
      <path class="cls-10" d="m66.59,28.78c4.31.48,8.35,1.72,12.14,3.73,3.78,2.01,7.04,4.57,9.77,7.68,2.73,3.11,4.88,6.66,6.46,10.63,1.58,3.97,2.37,8.16,2.37,12.57v27.72c0,1.92.23,4.03,0,6.07-.22,1.99-2.38,1.24-4.2,1.24-.67,0-4.11.03-4.93-.07-.81-.09-3.99.29-4.76-.14-.77-.43-.99-1.69-.85-2.67.17-1.19.03-1.94-.06-3.28-.48.19-1.34.62-2.58,1.29-1.25.67-2.16,1.15-2.73,1.44-1.06.48-2.16.91-3.31,1.29-1.15.38-2.35.77-3.59,1.15-2.39.48-4.98.72-7.76.72-7.18,0-13.6-1.94-19.25-5.82-5.65-3.88-9.86-8.88-12.64-15.01-.96-2.1-1.7-4.33-2.23-6.68-.53-2.35-.79-4.76-.79-7.25s.26-4.88.79-7.18c.53-2.3,1.27-4.55,2.23-6.75,2.77-6.22,6.99-11.25,12.64-15.08,5.65-3.83,12.06-5.74,19.25-5.74h2.01c.57,0,1.24.05,2.01.14Zm-4.17,55.3c2.78,0,5.43-.53,7.97-1.58,2.54-1.05,4.74-2.51,6.61-4.38,1.87-1.87,3.35-4.04,4.45-6.53,1.1-2.49,1.65-5.22,1.65-8.19,0-2.68-.55-5.29-1.65-7.83-1.1-2.54-2.61-4.74-4.52-6.61-1.92-1.87-4.12-3.38-6.61-4.52-2.49-1.15-5.12-1.72-7.9-1.72s-5.39.55-7.83,1.65c-2.44,1.1-4.62,2.61-6.53,4.52-1.92,1.92-3.43,4.12-4.52,6.61-1.1,2.49-1.65,5.12-1.65,7.9s.57,5.55,1.72,8.04c1.15,2.49,2.7,4.67,4.67,6.53,1.96,1.87,4.17,3.35,6.61,4.45,2.44,1.1,4.95,1.65,7.54,1.65Z"/>
      <path class="cls-10" d="m209.16,28.78c4.31.48,8.35,1.72,12.14,3.73,3.78,2.01,7.04,4.57,9.77,7.68,2.73,3.11,4.88,6.66,6.46,10.63,1.58,3.97,2.37,8.16,2.37,12.57v27.72c0,1.92.23,4.03,0,6.07s-2.38,1.24-4.2,1.24c-.67,0-4.11.03-4.93-.07-.81-.09-3.99.29-4.76-.14-.77-.43-.99-1.69-.85-2.67.17-1.19.03-1.94-.06-3.28-.48.19-1.34.62-2.58,1.29-1.25.67-2.16,1.15-2.73,1.44-1.06.48-2.16.91-3.31,1.29-1.15.38-2.35.77-3.59,1.15-2.39.48-4.98.72-7.76.72-7.18,0-13.6-1.94-19.25-5.82-5.65-3.88-9.86-8.88-12.64-15.01-.96-2.1-1.7-4.33-2.23-6.68-.53-2.35-.79-4.76-.79-7.25s.26-4.88.79-7.18c.53-2.3,1.27-4.55,2.23-6.75,2.77-6.22,6.99-11.25,12.64-15.08,5.65-3.83,12.06-5.74,19.25-5.74h2.01c.57,0,1.24.05,2.01.14Zm-4.17,55.3c2.78,0,5.43-.53,7.97-1.58,2.54-1.05,4.74-2.51,6.61-4.38,1.87-1.87,3.35-4.04,4.45-6.53,1.1-2.49,1.65-5.22,1.65-8.19,0-2.68-.55-5.29-1.65-7.83-1.1-2.54-2.61-4.74-4.52-6.61-1.92-1.87-4.12-3.38-6.61-4.52-2.49-1.15-5.12-1.72-7.9-1.72s-5.39.55-7.83,1.65c-2.44,1.1-4.62,2.61-6.53,4.52-1.92,1.92-3.43,4.12-4.52,6.61-1.1,2.49-1.65,5.12-1.65,7.9s.57,5.55,1.72,8.04c1.15,2.49,2.7,4.67,4.67,6.53,1.96,1.87,4.17,3.35,6.61,4.45,2.44,1.1,4.95,1.65,7.54,1.65Z"/>
      <g>
        <path class="cls-1" d="m26.56,41.61c-.92-.17-1.9-.18-2.74-.54-6-2.59-7.72-3.2-14.96-6.76-.41-.2-1.68-.82-2.31-2.14-.16-.34-.55-1.16-.21-1.98.35-.84,1.22-1.14,1.34-1.17,1.33-.43,2.72.6,3.34.98,4.77,2.93,9.51,5.91,14.23,8.92.67.43,1.18,1.13,1.76,1.7.24.15.33.45.22.7-.11.26-.41.39-.68.31Z"/>
        <path class="cls-2" d="m23.11,62.86c-.84.4-1.64.98-2.53,1.18-6.37,1.45-8.12,1.98-16.06,3.37-.46.08-1.84.33-3.13-.37-.33-.18-1.13-.61-1.34-1.48-.21-.88.32-1.64.39-1.74.82-1.13,2.55-1.12,3.27-1.18,5.58-.45,11.16-.84,16.75-1.2.8-.05,1.62.21,2.42.33.28-.02.53.17.59.44.06.27-.1.55-.36.65Z"/>
        <path class="cls-3" d="m41.71,26.46c-.67-.65-1.48-1.21-1.98-1.97-3.55-5.48-4.65-6.95-8.68-13.93-.23-.4-.94-1.62-.73-3.06.05-.37.18-1.27.93-1.76.75-.5,1.65-.27,1.77-.23,1.34.38,1.93,2.01,2.23,2.66,2.34,5.09,4.63,10.19,6.88,15.32.32.73.36,1.59.52,2.39.12.25.03.56-.21.7-.24.15-.55.1-.73-.12Z"/>
        <path class="cls-9" d="m62.82,23.02c-.19-.91-.55-1.83-.53-2.74.15-6.53.06-8.36.65-16.4.03-.46.13-1.87,1.12-2.94.26-.28.87-.95,1.76-.94.91,0,1.51.71,1.59.8.89,1.07.47,2.74.35,3.46-.93,5.52-1.9,11.03-2.92,16.54-.14.79-.6,1.52-.91,2.27-.05.27-.29.47-.57.47-.28,0-.51-.23-.54-.51Z"/>
        <path class="cls-6" d="m32.62,32.4c-.5-.27-1.08-.47-1.5-.84-3.01-2.65-3.91-3.33-7.45-6.79-.2-.2-.82-.8-.94-1.69-.03-.23-.1-.78.25-1.2.36-.42.93-.43,1.01-.43.86,0,1.48.86,1.76,1.2,2.23,2.62,4.43,5.26,6.62,7.91.31.38.48.88.71,1.33.11.13.11.32,0,.45-.11.13-.31.15-.45.05Z"/>
        <path class="cls-4" d="m21.98,51.98c-.57.09-1.14.29-1.7.26-4-.25-5.13-.25-10.05-.81-.28-.03-1.14-.13-1.78-.76-.17-.16-.56-.55-.53-1.1.03-.56.47-.91.53-.96.68-.52,1.7-.22,2.13-.13,3.37.7,6.72,1.44,10.08,2.2.48.11.92.41,1.37.62.17.04.28.19.27.36-.01.17-.15.31-.33.32Z"/>
        <path class="cls-8" d="m23.08,73.94c-.4.41-.74.91-1.2,1.22-3.36,2.2-4.25,2.88-8.53,5.38-.25.14-.99.58-1.88.46-.23-.03-.78-.11-1.09-.56-.31-.46-.17-1.01-.15-1.08.23-.82,1.23-1.19,1.63-1.38,3.12-1.45,6.25-2.88,9.39-4.28.45-.2.98-.22,1.47-.33.16-.07.34-.02.43.13.09.14.06.34-.07.45Z"/>
        <path class="cls-7" d="m51.48,22.88c-.24-.52-.59-1.01-.71-1.56-.86-3.92-1.18-5-1.99-9.88-.05-.28-.19-1.13.24-1.92.11-.2.38-.69.91-.82.54-.13,1,.2,1.07.25.69.51.68,1.57.71,2.01.25,3.43.47,6.86.66,10.3.03.49-.14.99-.21,1.49.01.17-.11.33-.27.36-.17.04-.34-.06-.4-.23Z"/>
        <path class="cls-5" d="m74.67,24.86c.08-.57.06-1.17.27-1.69,1.45-3.74,1.78-4.82,3.79-9.34.12-.26.47-1.05,1.26-1.47.21-.11.7-.37,1.21-.18.52.19.73.72.75.79.29.8-.3,1.68-.52,2.07-1.68,3-3.4,5.98-5.13,8.95-.25.42-.66.75-1,1.12-.08.15-.27.21-.43.15-.16-.06-.25-.24-.2-.41Z"/>
      </g>
      <path class="cls-10" d="m167.47,3.94c-.06-1.79-.58-2.2-2.49-2.22-.12-.01-.23-.02-.35-.02h-9.17s-.04,0-.06,0c-.17,0-.33,0-.5,0-2.4,0-2.57.19-2.56,2.58.01,9.05.02,18.11.02,27.16,0,1.59-.7,2.11-1.94,1.39-4.85-2.82-10.08-4.09-15.67-4.27-4.82-.15-9.49.69-13.84,2.55-4.13,1.76-7.87,4.27-11.07,7.58-6.3,6.53-9.87,14.29-10.1,23.27-.28,10.99,4.01,20.2,12.35,27.44,6.28,5.45,13.67,8.05,21.9,8.13,4.48.04,8.83-.82,13.02-2.63.67-.29,2.77-1.22,5.51-3.06v3.78c0,1.61,1.32,2.93,2.93,2.93h9.17c1.61,0,2.93-1.32,2.93-2.93V4.62c0-.24-.03-.47-.09-.69Zm-32.95,78.66c-10.6,0-19.2-8.59-19.2-19.2,0-.12.02-.23.02-.35-.05-1.86.27-3.64.84-5.35.61-1.95,1.53-3.76,2.69-5.4.26-.39.55-.76.84-1.12,0,0,0,0,0,0,.75-.93,1.59-1.78,2.52-2.53,3.33-2.78,7.61-4.46,12.29-4.46,8.22,0,15.22,5.18,17.95,12.45.01.02.03.04.04.06v.06c.76,2.07,1.2,4.29,1.2,6.63,0,10.6-8.59,19.2-19.2,19.2Z"/>
    </g>
  </g>
</svg>