<?xml version="1.0" encoding="UTF-8"?>
<svg id="katman_2" data-name="katman 2" xmlns="http://www.w3.org/2000/svg" viewBox="0 0 23.43 24">
  <defs>
    <style>
      .cls-1 {
        fill: #6a0000;
        stroke-width: 0px;
      }
    </style>
  </defs>
  <g id="Layer_1" data-name="Layer 1">
    <g>
      <path class="cls-1" d="m22.43,24H1c-.28,0-.55-.12-.74-.33-.19-.21-.28-.49-.26-.77L1.75,4.97c.05-.51.48-.9,1-.9h17.93c.52,0,.95.39,1,.9l1.75,17.93c.03.28-.07.56-.26.77-.19.21-.46.33-.74.33Zm-20.33-2h19.22l-1.55-15.93H3.66l-1.55,15.93Z"/>
      <path class="cls-1" d="m7.75,10.13c-.5,0-.93-.37-.99-.88-.02-.2-.59-5.05,1.59-7.64C9.19.61,10.31.07,11.67,0c.03,0,.07,0,.1,0,1.36.07,2.48.61,3.32,1.61,2.18,2.59,1.61,7.43,1.59,7.64-.07.55-.56.94-1.12.87-.55-.07-.94-.57-.87-1.11.14-1.16.21-4.52-1.13-6.11-.47-.55-1.07-.85-1.84-.89-.77.05-1.37.34-1.84.9-1.35,1.6-1.27,4.95-1.13,6.1.07.55-.32,1.05-.87,1.12-.04,0-.08,0-.12,0Z"/>
    </g>
  </g>
</svg>