<?xml version="1.0" encoding="UTF-8"?>
<svg id="katman_2" data-name="katman 2" xmlns="http://www.w3.org/2000/svg" viewBox="0 0 20.31 24">
  <defs>
    <style>
      .cls-1 {
        fill: #6a0000;
        stroke-width: 0px;
      }
    </style>
  </defs>
  <g id="Layer_1" data-name="Layer 1">
    <g>
      <path class="cls-1" d="m10.44,24c-.14,0-.24,0-.29,0-.52.01-6.19.09-8.8-2.44C.46,20.68,0,19.61,0,18.36c0-5.29,5.1-7.14,7.55-8.03,1.68-.61,3.53-.61,5.21,0,2.45.89,7.55,2.74,7.55,8.03,0,1.24-.46,2.31-1.36,3.19-2.36,2.29-7.21,2.45-8.51,2.45Zm-.29-12.17c-.66,0-1.32.11-1.94.34-3.03,1.1-6.26,2.57-6.26,6.2,0,.7.25,1.29.76,1.79,1.74,1.69,5.95,1.94,7.41,1.89h.03s.03,0,.03,0c1.48.04,5.68-.21,7.41-1.9.51-.5.76-1.08.76-1.79,0-3.62-3.23-5.1-6.26-6.2-.63-.23-1.28-.34-1.94-.34Z"/>
      <path class="cls-1" d="m10.15,9.36c-2.58,0-4.68-2.1-4.68-4.68S7.57,0,10.15,0s4.68,2.1,4.68,4.68-2.1,4.68-4.68,4.68Zm0-7.41c-1.51,0-2.73,1.23-2.73,2.73s1.23,2.73,2.73,2.73,2.73-1.23,2.73-2.73-1.22-2.73-2.73-2.73Z"/>
    </g>
  </g>
</svg>